<svg width="170" height="34" viewBox="0 0 170 34" fill="none" xmlns="http://www.w3.org/2000/svg">
<g clip-path="url(#clip0_71_184)">
<path d="M43.8637 9.47192C44.1315 9.47192 44.3922 9.56368 44.6073 9.73358C44.8223 9.90358 44.9803 10.1427 45.0578 10.4156L47.8758 20.3318C47.8994 20.4117 47.9463 20.4816 48.0097 20.5311C48.0732 20.5808 48.1498 20.6075 48.2286 20.6075C48.3072 20.6075 48.384 20.5808 48.4474 20.5311C48.5108 20.4816 48.5578 20.4117 48.5813 20.3318L51.3989 10.4156C51.4764 10.1427 51.6344 9.90358 51.8495 9.73358C52.0646 9.56368 52.3252 9.47192 52.5931 9.47192H55.8157L52.1734 21.8035C51.9038 22.6915 51.3766 23.4657 50.6679 24.0148C49.9591 24.5639 49.1051 24.8598 48.2286 24.8599C47.3519 24.8598 46.4978 24.5639 45.7891 24.0148C45.0802 23.4657 44.5531 22.6915 44.2834 21.8035L40.6396 9.47192H43.8637Z" fill="white"/>
<path d="M58.8187 9.47192H68.48V11.8003C68.48 12.1525 68.3485 12.4904 68.1145 12.7395C67.8806 12.9886 67.5633 13.1285 67.2324 13.1285H61.3068V15.3861H67.0644V17.2843C67.0644 17.6366 66.9329 17.9744 66.699 18.2234C66.465 18.4725 66.1477 18.6125 65.8168 18.6125H61.3082V20.8704H68.4814V23.1988C68.4814 23.5511 68.3499 23.889 68.1159 24.138C67.882 24.3871 67.5647 24.527 67.2338 24.527H57.5713V10.8001C57.5713 10.4479 57.7027 10.11 57.9366 9.86092C58.1706 9.61184 58.4879 9.47192 58.8187 9.47192Z" fill="white"/>
<path d="M71.0029 10.8001C71.0029 10.4479 71.1343 10.11 71.3683 9.86092C71.6022 9.61184 71.9195 9.47192 72.2504 9.47192H78.0721C81.5064 9.47192 83.7284 11.838 83.7284 14.7415C83.7284 16.9998 82.4155 18.3978 80.9004 19.2585L83.8295 24.5278H80.4984C80.2823 24.5278 80.0698 24.4679 79.8819 24.3541C79.6941 24.2404 79.5372 24.0765 79.4266 23.8788L77.2643 20.0112H74.7391V24.5278H71.0029V10.8001ZM77.9723 16.3545C79.1851 16.3545 79.8913 15.6019 79.8913 14.7415C79.8913 13.8811 79.1844 13.1285 77.9723 13.1285H74.7402V16.3545H77.9723Z" fill="white"/>
<path d="M93.433 9.04156C98.0796 9.04156 101.312 12.6978 101.312 16.9993C101.312 21.3008 98.0796 24.9574 93.433 24.9574C88.7871 24.9574 85.5547 21.3012 85.5547 16.9993C85.5547 12.6974 88.7867 9.04156 93.433 9.04156ZM93.433 21.3012C95.7549 21.3012 97.372 19.5804 97.372 16.9993C97.372 14.4182 95.7558 12.6978 93.433 12.6978C91.1106 12.6978 89.494 14.4186 89.494 16.9993C89.494 19.58 91.1099 21.3012 93.433 21.3012Z" fill="white"/>
<path d="M117.236 9.47192H119.558V15.7093H121.244C121.442 15.7093 121.636 15.6595 121.811 15.564C121.987 15.4685 122.139 15.33 122.254 15.1599L125.75 10.0212C125.866 9.85123 126.017 9.71272 126.193 9.61724C126.368 9.52176 126.563 9.47192 126.76 9.47192H128.851L123.902 16.6774L129.053 24.5278H126.875C126.675 24.5278 126.477 24.4763 126.3 24.3776C126.121 24.2789 125.968 24.1361 125.854 23.961L122.356 18.642C122.241 18.467 122.088 18.3241 121.91 18.2254C121.732 18.1267 121.535 18.0753 121.334 18.0753H119.559V24.5278H117.237L117.236 9.47192Z" fill="white"/>
<path d="M130.973 9.47192H133.295V24.5278H130.973V9.47192Z" fill="white"/>
<path d="M136.527 9.47192H138.848V22.1617H146.02V24.5278H137.773C137.441 24.5278 137.125 24.3879 136.89 24.1388C136.657 23.8897 136.525 23.5518 136.525 23.1995L136.527 9.47192Z" fill="white"/>
<path d="M147.839 9.47192H150.161V22.1617H157.333V24.5278H149.086C148.755 24.5278 148.438 24.3879 148.204 24.1388C147.97 23.8897 147.839 23.5518 147.839 23.1995V9.47192Z" fill="white"/>
<path d="M160.867 20.0107C160.867 20.0107 161.271 22.6992 164.401 22.6992C166.623 22.6992 167.533 21.731 167.533 20.4409C167.533 17.2145 159.047 18.9352 159.047 13.5582C159.047 11.1925 161.068 9.04163 164.3 9.04163C166.859 9.04163 168.257 10.2201 169.01 11.3586C169.141 11.5577 169.22 11.7914 169.234 12.0343C169.249 12.277 169.202 12.5197 169.096 12.7355C168.99 12.9514 168.831 13.1322 168.636 13.2583C168.44 13.3844 168.216 13.4509 167.988 13.4505H167.431C167.431 13.4505 167.128 11.3 164.3 11.3C162.381 11.3 161.472 12.2677 161.472 13.4505C161.472 16.6769 169.957 15.0639 169.957 20.3331C169.957 22.8051 167.937 24.9575 164.401 24.9575C161.358 24.9575 159.849 23.3592 159.114 21.9794C159.008 21.7773 158.954 21.5492 158.957 21.318C158.96 21.0868 159.02 20.8605 159.13 20.6615C159.241 20.4624 159.398 20.2977 159.587 20.1835C159.776 20.0693 159.99 20.0098 160.207 20.0107H160.867Z" fill="white"/>
<path d="M105.391 20.0107C105.391 20.0107 105.795 22.6991 108.926 22.6991C111.147 22.6991 112.057 21.731 112.057 20.4409C112.057 17.2144 103.572 18.9352 103.572 13.5581C103.572 11.1925 105.592 9.04156 108.825 9.04156C111.383 9.04156 112.781 10.22 113.535 11.3586C113.666 11.5576 113.743 11.7914 113.759 12.0342C113.774 12.2769 113.726 12.5196 113.62 12.7354C113.515 12.9514 113.356 13.1322 113.16 13.2583C112.965 13.3843 112.74 13.4508 112.512 13.4505H111.957C111.957 13.4505 111.654 11.2999 108.826 11.2999C106.907 11.2999 105.998 12.2676 105.998 13.4505C105.998 16.6768 114.482 15.0638 114.482 20.3331C114.482 22.805 112.462 24.9574 108.927 24.9574C105.885 24.9574 104.375 23.3592 103.64 21.9793C103.534 21.7772 103.481 21.5492 103.484 21.318C103.486 21.0868 103.546 20.8604 103.657 20.6614C103.767 20.4624 103.925 20.2977 104.114 20.1835C104.303 20.0693 104.516 20.0098 104.733 20.0107H105.391Z" fill="white"/>
<path d="M29.6384 15.9521C29.2569 15.7172 28.9787 15.3308 28.8646 14.8777C28.7505 14.4245 28.81 13.9417 29.0299 13.5352L31.6288 8.73076C31.962 8.1279 32.1316 7.43839 32.1183 6.73903C32.1052 6.03967 31.91 5.35794 31.5543 4.76977C31.2123 4.21557 30.7448 3.76177 30.1951 3.45007C29.6452 3.13837 29.0307 2.97877 28.4079 2.98592H6.4107C5.75382 2.98025 5.10833 3.16876 4.54609 3.53047C3.98385 3.89217 3.52691 4.41289 3.22612 5.03467C2.94639 5.62713 2.81097 6.28491 2.83229 6.94762C2.8536 7.61033 3.03096 8.25672 3.3481 8.82742L4.30694 10.5962L3.63017 11.0123C3.1657 11.2976 2.61385 11.3747 2.09593 11.2269C1.57803 11.0791 1.13647 10.7183 0.868347 10.2239C0.296738 9.18459 -0.00308389 8.00131 2.39168e-05 6.79695C0.00313172 5.59259 0.309056 4.41108 0.88602 3.37515C1.47784 2.33397 2.31445 1.47509 3.31326 0.88327C4.31206 0.291453 5.43854 -0.0128423 6.58154 0.000415403H28.3414C29.4841 -0.0128164 30.6103 0.291213 31.609 0.882536C32.6078 1.47386 33.4445 2.33207 34.0368 3.37257C34.615 4.40847 34.9217 5.59041 34.9252 6.79535C34.9286 8.0003 34.6287 9.18422 34.0566 10.2239L30.6277 16.5602L29.6384 15.9521Z" fill="#F26322"/>
<path d="M17.4512 33.9981C16.3261 34.0054 15.2195 33.6936 14.245 33.0948C13.2707 32.4958 12.4636 31.6316 11.9067 30.5906L3.2793 14.6788L3.37737 14.6263C3.76845 14.4148 4.20108 14.3049 4.63976 14.3057H4.67441C5.16836 14.3256 5.64963 14.4778 6.07365 14.7482C6.49766 15.0187 6.85071 15.3988 7.10011 15.8531L8.24954 17.8745L8.3289 17.9853C8.48284 18.2139 8.6843 18.4015 8.91759 18.5335C9.15088 18.6655 9.40972 18.7384 9.67375 18.7464C9.9604 18.7451 10.2418 18.6641 10.4899 18.5115C10.7381 18.3588 10.9445 18.1398 11.0887 17.876L16.9141 7.16669L17.8927 7.75699C18.0838 7.87214 18.2516 8.02648 18.3864 8.21109C18.5211 8.3957 18.6201 8.60693 18.6777 8.83255C18.7353 9.05817 18.7503 9.2937 18.7218 9.52551C18.6933 9.75736 18.622 9.98093 18.512 10.1832L13.5143 19.3699C13.2114 19.9384 12.7991 20.4323 12.3045 20.8193C11.8097 21.2062 11.2438 21.4775 10.6437 21.6153L10.3197 21.689L14.2833 28.9993C14.589 29.5772 15.0261 30.064 15.5546 30.4152C16.083 30.7663 16.6859 30.9705 17.3077 31.0089C17.3562 31.0108 17.4041 31.0112 17.452 31.0112C18.084 31.0152 18.7058 30.84 19.2532 30.5034C19.8007 30.1669 20.2541 29.6813 20.5669 29.0964L26.6824 17.8572L27.67 18.4527C27.861 18.5681 28.0286 18.7227 28.1633 18.9075C28.2979 19.0923 28.3968 19.3036 28.4542 19.5293C28.5116 19.755 28.5266 19.9906 28.4981 20.2226C28.4697 20.4544 28.3982 20.678 28.2882 20.8804L22.9936 30.5936C22.4367 31.6337 21.6299 32.4973 20.6558 33.0956C19.6818 33.694 18.5758 34.0055 17.4512 33.9981Z" fill="#F26322"/>
<path d="M16.7812 20.5325C16.5894 20.4177 16.4209 20.2636 16.2855 20.0789C16.15 19.8943 16.0504 19.6829 15.9924 19.4569C15.9344 19.231 15.9191 18.9949 15.9475 18.7626C15.9758 18.5304 16.0472 18.3064 16.1574 18.1037L22.1129 7.16669L23.0894 7.75699C23.2803 7.87242 23.4477 8.02691 23.5823 8.21158C23.7168 8.39624 23.8156 8.60743 23.8731 8.83296C23.9307 9.05849 23.9456 9.29391 23.9173 9.52561C23.8889 9.75737 23.8177 9.98083 23.708 10.1832L17.7553 21.1164L16.7812 20.5325Z" fill="#F26322"/>
<path d="M20.6555 22.9034C20.2763 22.6669 20.0004 22.2802 19.8881 21.8278C19.776 21.3755 19.8364 20.8942 20.0564 20.489L25.0356 11.3392L26.01 11.927C26.2011 12.0421 26.3687 12.1965 26.5033 12.381C26.638 12.5657 26.7369 12.7767 26.7945 13.0023C26.852 13.2279 26.867 13.4633 26.8386 13.695C26.8102 13.9268 26.7389 14.1501 26.6289 14.3525L21.6417 23.5174L20.6555 22.9034Z" fill="#F26322"/>
</g>
<defs>
<clipPath id="clip0_71_184">
<rect width="170" height="34" fill="white"/>
</clipPath>
</defs>
</svg>
