<svg width="44" height="50" viewBox="0 0 44 50" fill="none" xmlns="http://www.w3.org/2000/svg">
<g clip-path="url(#clip0_75_199)">
<path d="M14.3512 50C13.8369 48.5378 13.3744 47.0755 12.8082 45.6552C12.0604 43.7816 11.0533 42.0581 9.58374 40.6406C8.82302 39.9073 7.95425 39.3516 6.92122 38.9691C10.8473 36.7057 13.9867 33.7957 15.341 29.3152C16.3668 33.1462 18.9242 35.7819 21.9714 38.038C22.5578 38.4725 23.1744 38.8652 23.7939 39.2895C19.2613 41.6352 16.1118 45.2164 14.3512 50Z" fill="#F2D131"/>
<path d="M15.8789 9.18155C12.1286 11.1374 9.54821 14.0821 8.10025 18.0617C7.81642 17.174 7.56429 16.3281 7.27325 15.4967C6.83238 14.238 6.27337 13.0356 5.5285 11.9227C4.64099 10.6005 3.55754 9.51209 1.99864 8.93615C5.21009 7.07553 7.78617 4.69816 8.91572 1.00146C10.0035 4.79487 12.7438 7.13472 15.8789 9.18155V9.18155Z" fill="#F2D131"/>
<path d="M30.1521 19.9587C33.254 18.1804 35.7393 15.8896 36.8372 12.3026C37.9091 15.9574 40.5414 18.2208 43.5713 20.1853C39.9665 22.0705 37.4711 24.9069 36.0419 28.7768C35.8387 28.1099 35.6745 27.5195 35.48 26.9364C34.8864 25.1523 34.1358 23.4504 32.927 21.9824C32.1807 21.0759 31.2888 20.373 30.1521 19.9587Z" fill="#F2D131"/>
</g>
<defs>
<clipPath id="clip0_75_199">
<rect width="43.5714" height="50" fill="white" transform="translate(43.5713 50) rotate(-180)"/>
</clipPath>
</defs>
</svg>
